<?xml version="1.0" encoding="utf-8"?>
<!-- Generator: Adobe Illustrator 21.1.0, SVG Export Plug-In . SVG Version: 6.00 Build 0)  -->
<svg version="1.1" id="Layer_1" xmlns="http://www.w3.org/2000/svg" xmlns:xlink="http://www.w3.org/1999/xlink" x="0px" y="0px"
	 viewBox="0 0 250 59" style="enable-background:new 0 0 250 59;" xml:space="preserve">
<style type="text/css">
	.st0{fill:#2D2D72;}
	.st1{fill:none;stroke:#FAA31B;stroke-width:2.6095;stroke-miterlimit:10;}
</style>
<g>
	<path class="st0" d="M21.2,19.3c-1.3-0.8-2.6-1-3.8-1c-1.3,0-2.6,0.4-3.7,1s-2,1.7-2.6,2.9c-0.7,1.2-0.9,2.6-0.9,4.2
		c0,1.6,0.3,2.9,0.9,4.2c0.7,1.2,1.4,2.2,2.6,2.9c1.2,0.7,2.3,1,3.7,1c1.2,0,2.3-0.3,3.7-0.9c1.3-0.7,2.5-1.4,3.5-2.6l5.2,5.5
		c-1.7,1.8-3.7,3.3-5.9,4.3c-2.3,1-4.6,1.6-6.9,1.6c-3,0-5.7-0.7-8.2-2.1c-2.5-1.3-4.3-3.3-5.7-5.6c-1.4-2.3-2-5.2-2-8.2
		c0-2.9,0.7-5.6,2.1-8c1.4-2.3,3.4-4.2,5.9-5.6c2.5-1.3,5.2-2.1,8.4-2.1c2.2,0,4.6,0.5,6.8,1.4s4.2,2.2,5.7,3.9l-5.2,6.1
		C23.7,21,22.5,20.1,21.2,19.3z"/>
	<path class="st0" d="M51.7,21.2c2.1,2.2,3.3,5.3,3.3,9.4c0,0.7,0,1,0,1.3H39.1c0.4,1.2,0.9,2,1.7,2.6s1.7,0.9,2.9,0.9
		c1.8,0,3.5-0.8,5.2-2.2l4.6,4.4c-1.2,1.4-2.7,2.5-4.4,3.1c-1.8,0.8-3.8,1-5.9,1c-2.6,0-4.8-0.5-6.7-1.4c-2-1-3.4-2.3-4.3-4.2
		c-1-1.8-1.6-3.9-1.6-6.3s0.5-4.6,1.6-6.4c1-1.8,2.5-3.3,4.3-4.3c1.8-1,4-1.6,6.5-1.6C46.5,17.9,49.5,18.9,51.7,21.2z M45.3,24.8
		c-0.7-0.8-1.6-1.2-2.6-1.2s-1.8,0.4-2.5,1c-0.7,0.8-1,1.7-1.3,2.9h7.3C46.4,26.5,46,25.6,45.3,24.8z"/>
	<path class="st0" d="M70.1,18.8c1.3-0.7,2.6-1,4.3-1v7.8c-0.4,0-0.8-0.1-1.6-0.1c-1.8,0-3.3,0.4-4.3,1.3S67,28.8,67,30.3v11.2h-8.7
		V18H67v3.7C67.9,20.5,69,19.6,70.1,18.8z"/>
	<path class="st0" d="M89.3,18.8c1.3-0.7,2.6-1,4.3-1v7.8c-0.4,0-0.8-0.1-1.6-0.1c-1.8,0-3.3,0.4-4.3,1.3s-1.6,2.1-1.6,3.5v11.2
		h-8.7V18h8.7v3.7C87,20.5,88,19.6,89.3,18.8z"/>
	<path class="st0" d="M114.6,19.3c2,1,3.5,2.3,4.6,4.2c1,1.8,1.6,3.9,1.6,6.4c0,2.3-0.5,4.4-1.6,6.3c-1,1.8-2.6,3.3-4.6,4.2
		c-2,1-4.2,1.4-6.8,1.4c-2.6,0-5-0.5-6.9-1.4c-2-1-3.5-2.3-4.6-4.2c-1-1.8-1.6-3.9-1.6-6.3s0.5-4.6,1.6-6.4c1-1.8,2.6-3.3,4.6-4.2
		c2-1,4.3-1.4,6.9-1.4C110.4,17.9,112.7,18.2,114.6,19.3z M104.7,26.1c-0.8,0.9-1.2,2.2-1.2,3.8c0,1.6,0.4,2.9,1.2,3.8
		c0.8,0.9,1.8,1.4,3.1,1.4c1.3,0,2.2-0.5,3-1.4c0.8-0.9,1.2-2.2,1.2-3.8c0-1.6-0.4-2.7-1.2-3.8c-0.8-0.9-1.8-1.4-3-1.4
		C106.5,24.6,105.5,25.2,104.7,26.1z"/>
	<path class="st0" d="M118.7,11.3h9.5l6.9,20.9l6.9-20.9h9.1l-11.6,30.1h-9.3L118.7,11.3z"/>
	<path class="st0" d="M170.2,21.2c2.1,2.2,3.3,5.3,3.3,9.4c0,0.7,0,1,0,1.3h-15.8c0.4,1.2,0.9,2,1.7,2.6c0.8,0.7,1.7,0.9,2.9,0.9
		c1.8,0,3.5-0.8,5.2-2.2l4.6,4.4c-1.2,1.4-2.7,2.5-4.4,3.1c-1.8,0.8-3.8,1-5.9,1c-2.6,0-4.8-0.5-6.7-1.4c-2-1-3.4-2.3-4.3-4.2
		c-1-1.8-1.6-3.9-1.6-6.3s0.5-4.6,1.6-6.4c1-1.8,2.5-3.3,4.3-4.3c1.8-1,4-1.6,6.4-1.6C165.1,17.9,168.1,18.9,170.2,21.2z
		 M163.9,24.8c-0.7-0.8-1.6-1.2-2.6-1.2s-1.8,0.4-2.5,1c-0.7,0.8-1,1.7-1.3,2.9h7.3C164.9,26.5,164.6,25.6,163.9,24.8z"/>
	<path class="st0" d="M188.7,18.8c1.3-0.7,2.6-1,4.3-1v7.8c-0.4,0-0.8-0.1-1.6-0.1c-1.8,0-3.3,0.4-4.3,1.3c-1,0.9-1.6,2.1-1.6,3.5
		v11.2h-8.7V18h8.7v3.7C186.5,20.5,187.6,19.6,188.7,18.8z"/>
	<path class="st0" d="M220.2,9.5v32h-8.6v-2.6c-0.8,0.9-1.7,1.7-2.7,2.2c-1,0.5-2.3,0.8-3.7,0.8c-2.2,0-4-0.5-5.7-1.6
		c-1.7-1-2.9-2.5-3.8-4.3c-0.9-1.8-1.3-3.9-1.3-6.4c0-2.3,0.4-4.4,1.3-6.3c0.9-1.8,2.1-3.1,3.8-4.2c1.6-0.9,3.5-1.4,5.6-1.4
		c1.4,0,2.6,0.3,3.8,0.8c1.2,0.5,2.1,1.3,2.9,2.2V9.5C211.7,9.5,220.2,9.5,220.2,9.5z M210.4,33.6c0.8-0.9,1.2-2.2,1.2-3.8
		c0-1.6-0.4-2.7-1.2-3.8c-0.8-0.9-1.8-1.4-3-1.4c-1.3,0-2.3,0.5-3.1,1.4c-0.8,0.9-1.2,2.2-1.2,3.8s0.4,2.9,1.2,3.8
		c0.8,0.9,1.8,1.4,3.1,1.4C208.6,35.2,209.6,34.7,210.4,33.6z"/>
	<path class="st0" d="M245.2,21.2c2.1,2.2,3.3,5.3,3.3,9.4c0,0.7,0,1,0,1.3h-15.8c0.4,1.2,0.9,2,1.7,2.6s1.7,0.9,2.9,0.9
		c1.8,0,3.5-0.8,5.2-2.2l4.6,4.4c-1.2,1.4-2.7,2.5-4.4,3.1c-1.8,0.8-3.8,1-5.9,1c-2.6,0-4.8-0.5-6.7-1.4c-2-1-3.4-2.3-4.3-4.2
		c-1-1.8-1.6-3.9-1.6-6.3s0.5-4.6,1.6-6.4c1-1.8,2.5-3.3,4.3-4.3c1.8-1,4-1.6,6.4-1.6C240,17.9,243,18.9,245.2,21.2z M238.8,24.8
		c-0.7-0.8-1.6-1.2-2.6-1.2s-1.8,0.4-2.5,1c-0.7,0.8-1,1.7-1.3,2.9h7.3C239.9,26.5,239.5,25.6,238.8,24.8z"/>
</g>
<line class="st1" x1="1.4" y1="45.5" x2="248" y2="45.5"/>
</svg>
