<?xml version="1.0" encoding="utf-8"?>
<!-- Generator: Adobe Illustrator 21.1.0, SVG Export Plug-In . SVG Version: 6.00 Build 0)  -->
<svg version="1.1" id="Layer_1" xmlns="http://www.w3.org/2000/svg" xmlns:xlink="http://www.w3.org/1999/xlink" x="0px" y="0px"
	 viewBox="0 0 192 59" style="enable-background:new 0 0 192 59;" xml:space="preserve">
<style type="text/css">
	.st0{fill:#2D2D72;}
	.st1{fill:none;stroke:#FAA31B;stroke-width:2;stroke-miterlimit:10;}
</style>
<g>
	<path class="st0" d="M16.1,20.6c-1-0.6-2-0.8-2.9-0.8c-1,0-2,0.3-2.8,0.8s-1.5,1.3-2,2.2c-0.5,0.9-0.7,2-0.7,3.2s0.2,2.2,0.7,3.2
		c0.5,0.9,1.1,1.7,2,2.2s1.8,0.8,2.8,0.8c0.9,0,1.8-0.2,2.8-0.7c1-0.5,1.9-1.1,2.7-2l4,4.2c-1.3,1.4-2.8,2.5-4.5,3.3
		c-1.8,0.8-3.5,1.2-5.3,1.2c-2.3,0-4.4-0.5-6.3-1.6c-1.9-1-3.3-2.5-4.4-4.3S0.7,28.3,0.7,26c0-2.2,0.5-4.3,1.6-6.1
		c1.1-1.8,2.6-3.2,4.5-4.3c1.9-1,4-1.6,6.4-1.6c1.7,0,3.5,0.4,5.2,1.1c1.7,0.7,3.2,1.7,4.4,3l-4,4.7C18,21.9,17.1,21.2,16.1,20.6z"
		/>
	<path class="st0" d="M39.5,22.1c1.6,1.7,2.5,4.1,2.5,7.2c0,0.5,0,0.8,0,1H29.8c0.3,0.9,0.7,1.5,1.3,2c0.6,0.5,1.3,0.7,2.2,0.7
		c1.4,0,2.7-0.6,4-1.7l3.5,3.4c-0.9,1.1-2.1,1.9-3.4,2.4c-1.4,0.6-2.9,0.8-4.5,0.8c-2,0-3.7-0.4-5.1-1.1c-1.5-0.8-2.6-1.8-3.3-3.2
		c-0.8-1.4-1.2-3-1.2-4.8c0-1.8,0.4-3.5,1.2-4.9s1.9-2.5,3.3-3.3c1.4-0.8,3.1-1.2,5-1.2C35.5,19.5,37.8,20.3,39.5,22.1z M34.6,24.8
		c-0.5-0.6-1.2-0.9-2-0.9c-0.8,0-1.4,0.3-1.9,0.8c-0.5,0.6-0.8,1.3-1,2.2h5.6C35.4,26.1,35.1,25.4,34.6,24.8z"/>
	<path class="st0" d="M53.6,20.2c1-0.5,2-0.8,3.3-0.8v6c-0.3,0-0.6-0.1-1.2-0.1c-1.4,0-2.5,0.3-3.3,1c-0.8,0.7-1.2,1.6-1.2,2.7v8.6
		h-6.7v-18h6.7v2.8C51.9,21.5,52.7,20.8,53.6,20.2z"/>
	<path class="st0" d="M68.3,20.2c1-0.5,2-0.8,3.3-0.8v6c-0.3,0-0.6-0.1-1.2-0.1c-1.4,0-2.5,0.3-3.3,1c-0.8,0.7-1.2,1.6-1.2,2.7v8.6
		h-6.7v-18h6.7v2.8C66.5,21.5,67.3,20.8,68.3,20.2z"/>
	<path class="st0" d="M87.7,20.6c1.5,0.8,2.7,1.8,3.5,3.2c0.8,1.4,1.2,3,1.2,4.9c0,1.8-0.4,3.4-1.2,4.8c-0.8,1.4-2,2.5-3.5,3.2
		c-1.5,0.8-3.2,1.1-5.2,1.1c-2,0-3.8-0.4-5.3-1.1c-1.5-0.8-2.7-1.8-3.5-3.2c-0.8-1.4-1.2-3-1.2-4.8c0-1.8,0.4-3.5,1.2-4.9
		c0.8-1.4,2-2.5,3.5-3.2c1.5-0.8,3.3-1.1,5.3-1.1C84.5,19.5,86.2,19.8,87.7,20.6z M80.1,25.8c-0.6,0.7-0.9,1.7-0.9,2.9
		c0,1.2,0.3,2.2,0.9,2.9c0.6,0.7,1.4,1.1,2.4,1.1c1,0,1.7-0.4,2.3-1.1c0.6-0.7,0.9-1.7,0.9-2.9c0-1.2-0.3-2.1-0.9-2.9
		c-0.6-0.7-1.4-1.1-2.3-1.1C81.5,24.7,80.7,25.1,80.1,25.8z"/>
	<path class="st0" d="M90.8,14.5h7.3l5.3,16l5.3-16h7l-8.9,23.1h-7.1L90.8,14.5z"/>
	<path class="st0" d="M130.3,22.1c1.6,1.7,2.5,4.1,2.5,7.2c0,0.5,0,0.8,0,1h-12.1c0.3,0.9,0.7,1.5,1.3,2c0.6,0.5,1.3,0.7,2.2,0.7
		c1.4,0,2.7-0.6,4-1.7l3.5,3.4c-0.9,1.1-2.1,1.9-3.4,2.4c-1.4,0.6-2.9,0.8-4.5,0.8c-2,0-3.7-0.4-5.1-1.1c-1.5-0.8-2.6-1.8-3.3-3.2
		c-0.8-1.4-1.2-3-1.2-4.8c0-1.8,0.4-3.5,1.2-4.9s1.9-2.5,3.3-3.3c1.4-0.8,3.1-1.2,4.9-1.2C126.4,19.5,128.7,20.3,130.3,22.1z
		 M125.5,24.8c-0.5-0.6-1.2-0.9-2-0.9c-0.8,0-1.4,0.3-1.9,0.8c-0.5,0.6-0.8,1.3-1,2.2h5.6C126.2,26.1,126,25.4,125.5,24.8z"/>
	<path class="st0" d="M144.5,20.2c1-0.5,2-0.8,3.3-0.8v6c-0.3,0-0.6-0.1-1.2-0.1c-1.4,0-2.5,0.3-3.3,1c-0.8,0.7-1.2,1.6-1.2,2.7v8.6
		h-6.7v-18h6.7v2.8C142.8,21.5,143.6,20.8,144.5,20.2z"/>
	<path class="st0" d="M168.6,13.1v24.5H162v-2c-0.6,0.7-1.3,1.3-2.1,1.7c-0.8,0.4-1.8,0.6-2.8,0.6c-1.7,0-3.1-0.4-4.4-1.2
		c-1.3-0.8-2.2-1.9-2.9-3.3c-0.7-1.4-1-3-1-4.9c0-1.8,0.3-3.4,1-4.8c0.7-1.4,1.6-2.4,2.9-3.2c1.2-0.7,2.7-1.1,4.3-1.1
		c1.1,0,2,0.2,2.9,0.6c0.9,0.4,1.6,1,2.2,1.7v-8.6H168.6z M161.1,31.6c0.6-0.7,0.9-1.7,0.9-2.9c0-1.2-0.3-2.1-0.9-2.9
		c-0.6-0.7-1.4-1.1-2.3-1.1c-1,0-1.8,0.4-2.4,1.1c-0.6,0.7-0.9,1.7-0.9,2.9c0,1.2,0.3,2.2,0.9,2.9s1.4,1.1,2.4,1.1
		C159.7,32.8,160.5,32.4,161.1,31.6z"/>
	<path class="st0" d="M187.8,22.1c1.6,1.7,2.5,4.1,2.5,7.2c0,0.5,0,0.8,0,1h-12.1c0.3,0.9,0.7,1.5,1.3,2c0.6,0.5,1.3,0.7,2.2,0.7
		c1.4,0,2.7-0.6,4-1.7l3.5,3.4c-0.9,1.1-2.1,1.9-3.4,2.4c-1.4,0.6-2.9,0.8-4.5,0.8c-2,0-3.7-0.4-5.1-1.1c-1.5-0.8-2.6-1.8-3.3-3.2
		c-0.8-1.4-1.2-3-1.2-4.8c0-1.8,0.4-3.5,1.2-4.9s1.9-2.5,3.3-3.3c1.4-0.8,3.1-1.2,4.9-1.2C183.8,19.5,186.1,20.3,187.8,22.1z
		 M182.9,24.8c-0.5-0.6-1.2-0.9-2-0.9c-0.8,0-1.4,0.3-1.9,0.8c-0.5,0.6-0.8,1.3-1,2.2h5.6C183.7,26.1,183.4,25.4,182.9,24.8z"/>
</g>
<line class="st1" x1="0.9" y1="40.7" x2="189.9" y2="40.7"/>
</svg>
